<?xml version="1.0" standalone="no"?>
<!DOCTYPE svg PUBLIC "-//W3C//DTD SVG 20010904//EN"
 "http://www.w3.org/TR/2001/REC-SVG-20010904/DTD/svg10.dtd">
<svg version="1.0" xmlns="http://www.w3.org/2000/svg"
 width="1243.000000pt" height="1243.000000pt" viewBox="0 0 1243.000000 1243.000000"
 preserveAspectRatio="xMidYMid meet">
<metadata>
Created by potrace 1.11, written by Peter Selinger 2001-2013
</metadata>
<g transform="translate(0.000000,1243.000000) scale(0.100000,-0.100000)"
fill="#000000" stroke="none">
<path d="M6029 12411 c-190 -41 -375 -161 -494 -321 -36 -48 -90 -155 -114
-227 -20 -60 -24 -78 -36 -163 -4 -25 -8 -47 -10 -49 -3 -2 -233 -4 -512 -4
-464 0 -515 -1 -583 -18 -144 -37 -263 -113 -352 -225 -38 -49 -56 -64 -76
-65 -15 0 -344 0 -732 0 -396 0 -732 -5 -768 -10 -187 -28 -349 -177 -397
-367 -13 -51 -15 -679 -12 -5172 2 -4869 3 -5117 20 -5158 52 -129 136 -227
239 -280 124 -63 -164 -59 4033 -57 2112 1 3854 5 3870 9 56 12 171 75 218
118 62 58 112 136 138 216 l22 67 1 5089 c1 4007 -2 5103 -11 5150 -38 187
-197 345 -385 384 -27 5 -359 10 -795 10 -411 1 -753 1 -758 1 -6 1 -28 25
-49 54 -77 105 -193 185 -331 229 -68 22 -83 22 -598 24 -291 1 -530 4 -532 6
-1 1 -5 28 -9 58 -3 30 -8 67 -11 82 -8 44 -56 171 -74 198 -9 14 -23 38 -31
53 -24 48 -124 160 -186 208 -152 118 -292 168 -489 174 -80 3 -134 -1 -196
-14z m226 -495 c25 -11 41 -28 57 -61 21 -43 21 -47 7 -88 -34 -93 -140 -115
-206 -43 -61 66 -39 160 47 198 25 11 59 9 95 -6z"/>
<path d="M2404 11613 c-19 -19 -18 -37 3 -54 13 -11 100 -14 467 -15 248 0
459 3 469 8 9 5 17 20 17 33 0 13 -8 28 -17 33 -10 5 -222 9 -471 9 -379 0
-456 -2 -468 -14z"/>
<path d="M9968 11619 c-10 -5 -18 -21 -18 -33 0 -29 19 -38 87 -42 29 -2 87
-12 130 -24 272 -73 473 -297 518 -576 3 -23 7 -158 7 -300 0 -154 5 -264 11
-271 14 -19 55 -16 65 5 5 9 8 143 6 297 -2 315 -11 374 -80 513 -34 71 -129
199 -175 236 -126 104 -227 155 -361 185 -72 16 -171 22 -190 10z"/>
<path d="M1665 10873 c-13 -13 -15 -151 -15 -1077 0 -1164 -3 -1104 55 -1078
22 10 25 18 26 64 4 296 0 2078 -5 2086 -10 17 -46 21 -61 5z"/>
<path d="M10718 8813 c-9 -3 -19 -12 -22 -21 -2 -9 -4 -237 -4 -505 0 -520 1
-522 48 -510 11 3 24 13 28 22 6 12 9 932 3 988 -1 16 -32 31 -53 26z"/>
<path d="M1662 8238 c-9 -9 -12 -151 -12 -577 0 -312 4 -571 8 -577 12 -18 39
-23 57 -10 16 12 17 55 17 580 0 431 -3 570 -12 581 -15 18 -42 19 -58 3z"/>
<path d="M10709 7390 c-15 -9 -17 -95 -17 -1007 0 -654 4 -1002 10 -1010 17
-22 58 -16 66 10 5 12 8 463 8 1003 -1 815 -3 984 -15 997 -15 19 -29 21 -52
7z"/>
<path d="M1673 6579 c-23 -8 -23 -10 -23 -203 l0 -196 25 -6 c45 -11 55 0 55
63 1 99 1 266 1 300 -1 38 -25 55 -58 42z"/>
<path d="M10702 4928 c-13 -18 -13 -819 0 -835 17 -22 58 -16 66 10 5 12 8
201 8 420 -1 340 -3 399 -16 407 -21 13 -46 12 -58 -2z"/>
<path d="M1667 4286 c-16 -13 -17 -102 -15 -1822 3 -1978 -1 -1818 59 -1978
28 -75 113 -201 174 -257 27 -24 53 -49 60 -56 25 -24 123 -82 181 -106 154
-65 48 -61 1564 -63 809 -1 1382 2 1393 8 20 10 23 53 5 65 -7 4 -623 8 -1368
9 -745 1 -1371 5 -1390 9 -19 3 -42 7 -50 9 -64 10 -181 62 -242 106 -139 101
-237 240 -284 405 -16 56 -18 191 -20 1859 -2 1718 -3 1800 -20 1813 -22 16
-24 16 -47 -1z"/>
<path d="M10712 2295 c-19 -14 -19 -28 -20 -783 0 -423 -3 -792 -7 -821 -20
-155 -113 -327 -235 -431 -95 -82 -234 -148 -350 -166 -25 -4 -679 -8 -1453
-8 -1485 -1 -1427 1 -1427 -41 0 -42 -59 -40 1427 -40 774 0 1431 3 1458 7
168 24 316 99 438 222 109 110 170 218 210 371 19 77 20 107 22 870 1 435 -2
797 -7 806 -11 24 -33 29 -56 14z"/>
<path d="M5703 72 c-15 -16 -16 -31 -3 -52 8 -13 76 -15 502 -16 278 -1 501 3
511 8 20 10 23 53 5 65 -7 4 -235 8 -507 8 -398 0 -497 -2 -508 -13z"/>
</g>
</svg>
